Coordinates
nRows=253
nColumns=2
inDegrees=yes
endheader
time	ankle_angle_r	
2.20819	 -0.335693	
2.24381	 -0.411987	
2.27942	 -0.335693	
2.31504	 -0.289917	
2.35066	 -0.396729	
2.38627	 -0.427246	
2.42189	 -0.259399	
2.4575	 -0.320435	
2.49312	 -0.350952	
2.52874	 -0.350952	
2.56435	 -0.442505	
2.59997	 -0.274658	
2.63558	 -0.244141	
2.6712	 -0.381470	
2.70682	 -0.335693	
2.74243	 -0.244141	
2.77805	 -0.289917	
2.81366	 -0.183105	
2.84928	 -0.335693	
2.8849	 -0.366211	
2.92051	 -0.228882	
2.95613	 -0.244141	
2.99174	 -0.335693	
3.02736	 -0.335693	
3.06298	 -0.305176	
3.09859	 -0.259399	
3.13421	 -0.213623	
3.16982	 -0.335693	
3.20544	 -0.381470	
3.24106	 -0.213623	
3.27667	 -0.289917	
3.31229	 -0.305176	
3.3479	 -0.274658	
3.38352	 -0.335693	
3.41914	 -0.244141	
3.45475	 -0.228882	
3.49037	 -0.350952	
3.52598	 -0.289917	
3.5616	 -0.274658	
3.59722	 -0.350952	
3.63283	 -0.228882	
3.66845	 -0.335693	
3.70406	 -0.396729	
3.73968	 -0.274658	
3.7753	 -0.350952	
3.81091	 -0.427246	
3.84653	 -0.366211	
3.88214	 -0.335693	
3.91776	 -0.366211	
3.95338	 -0.289917	
3.98899	 -0.381470	
4.02461	 -0.396729	
4.06022	 -0.305176	
4.09584	 -0.305176	
4.13146	 -0.335693	
4.16707	 -0.320435	
4.20269	 -0.396729	
4.2383	 -0.274658	
4.27392	 -0.244141	
4.30954	 -0.366211	
4.34515	 -0.305176	
4.38077	 -0.167847	
4.41638	 -0.259399	
4.452	 -0.244141	
4.48762	 -0.305176	
4.52323	 -0.350952	
4.55885	 -0.244141	
4.59446	 -0.213623	
4.63008	 -0.381470	
4.6657	 -0.274658	
4.70131	 -0.305176	
4.73693	 -0.289917	
4.77254	 -0.198364	
4.80816	 -0.335693	
4.84378	 -0.350952	
4.87939	 -0.228882	
4.91501	 -0.259399	
4.95062	 -0.335693	
4.98624	 -0.320435	
5.02186	 -0.381470	
5.05747	 -0.228882	
5.09309	 -0.228882	
5.1287	 -0.320435	
5.16432	 -0.274658	
5.19994	 -0.213623	
5.23555	 -0.244141	
5.27117	 -0.213623	
5.30678	 -0.274658	
5.3424	 -0.427246	
5.37802	 -0.228882	
5.41363	 -0.228882	
5.44925	 -0.366211	
5.48486	 -0.320435	
5.52048	 -0.274658	
5.5561	 -0.289917	
5.59171	 -0.183105	
5.62733	 -0.396729	
5.66294	 -0.335693	
5.69856	 -0.259399	
5.73418	 -0.289917	
5.76979	 -0.396729	
5.80541	 -0.305176	
5.84102	 -0.411987	
5.87664	 -0.305176	
5.91226	 -0.244141	
5.94787	 -0.381470	
5.98349	 -0.366211	
6.0191	 -0.305176	
6.05472	 -0.335693	
6.09034	 -0.305176	
6.12595	 -0.350952	
6.16157	 -0.442505	
6.19718	 -0.305176	
6.2328	 -0.350952	
6.26842	 -0.442505	
6.30403	 -0.320435	
6.33965	 -0.335693	
6.37526	 -0.274658	
6.41088	 -0.228882	
6.4465	 -0.320435	
6.48211	 -0.350952	
6.51773	 -0.274658	
6.55334	 -0.289917	
6.58896	 -0.381470	
6.62458	 -0.274658	
6.66019	 -0.350952	
6.69581	 -0.228882	
6.73142	 -0.259399	
6.76704	 -0.305176	
6.80266	 -0.289917	
6.83827	 -0.213623	
6.87389	 -0.305176	
6.9095	 -0.244141	
6.94512	 -0.289917	
6.98074	 -0.350952	
7.01635	 -0.274658	
7.05197	 -0.213623	
7.08758	 -0.350952	
7.1232	 -0.320435	
7.15882	 -0.274658	
7.19443	 -0.289917	
7.23005	 -0.228882	
7.26566	 -0.335693	
7.30128	 -0.350952	
7.3369	 -0.198364	
7.37251	 -0.259399	
7.40813	 -0.305176	
7.44374	 -0.305176	
7.47936	 -0.350952	
7.51498	 -0.228882	
7.55059	 -0.198364	
7.58621	 -0.320435	
7.62182	 -0.274658	
7.65744	 -0.244141	
7.69306	 -0.289917	
7.72867	 -0.213623	
7.76429	 -0.305176	
7.7999	 -0.366211	
7.83552	 -0.244141	
7.87114	 -0.244141	
7.90675	 -0.381470	
7.94237	 -0.320435	
7.97798	 -0.259399	
8.0136	 -0.335693	
8.04922	 -0.289917	
8.08483	 -0.366211	
8.12045	 -0.366211	
8.15606	 -0.274658	
8.19168	 -0.350952	
8.2273	 -0.381470	
8.26291	 -0.350952	
8.29853	 -0.457764	
8.33414	 -0.289917	
8.36976	 -0.274658	
8.40538	 -0.381470	
8.44099	 -0.366211	
8.47661	 -0.259399	
8.51222	 -0.320435	
8.54784	 -0.320435	
8.58346	 -0.335693	
8.61907	 -0.411987	
8.65469	 -0.274658	
8.6903	 -0.274658	
8.72592	 -0.366211	
8.76154	 -0.274658	
8.79715	 -0.289917	
8.83277	 -0.305176	
8.86838	 -0.198364	
8.904	 -0.350952	
8.93962	 -0.350952	
8.97523	 -0.213623	
9.01085	 -0.274658	
9.04646	 -0.335693	
9.08208	 -0.305176	
9.1177	 -0.350952	
9.15331	 -0.213623	
9.18893	 -0.213623	
9.22454	 -0.305176	
9.26016	 -0.259399	
9.29578	 -0.228882	
9.33139	 -0.335693	
9.36701	 -0.259399	
9.40262	 -0.320435	
9.43824	 -0.442505	
9.47386	 -0.289917	
9.50947	 -0.289917	
9.54509	 -0.396729	
9.5807	 -0.366211	
9.61632	 -0.366211	
9.65194	 -0.381470	
9.68755	 -0.244141	
9.72317	 -0.366211	
9.75878	 -0.442505	
9.7944	 -0.274658	
9.83002	 -0.366211	
9.86563	 -0.411987	
9.90125	 -0.320435	
9.93686	 -0.381470	
9.97248	 -0.289917	
10.0081	 -0.289917	
10.0437	 -0.396729	
10.0793	 -0.350952	
10.1149	 -0.289917	
10.1506	 -0.381470	
10.1862	 -0.305176	
10.2218	 -0.366211	
10.2574	 -0.427246	
10.293	 -0.320435	
10.3286	 -0.320435	
10.3643	 -0.396729	
10.3999	 -0.350952	
10.4355	 -0.350952	
10.4711	 -0.381470	
10.5067	 -0.274658	
10.5423	 -0.350952	
10.578	 -0.381470	
10.6136	 -0.289917	
10.6492	 -0.350952	
10.6848	 -0.396729	
10.7204	 -0.350952	
10.756	 -0.350952	
10.7916	 -0.274658	
10.8273	 -0.228882	
10.8629	 -0.350952	
10.8985	 -0.305176	
10.9341	 -0.274658	
10.9697	 -0.289917	
11.0053	 -0.259399	
11.041	 -0.335693	
11.0766	 -0.335693	
11.1122	 -0.228882	
11.1478	 -0.244141	
11.1834	 -0.335693	
